<svg xmlns="http://www.w3.org/2000/svg" width="700" height="240" viewBox="0 0 700 240"><defs><linearGradient id="a" x1="0" y1="0" x2="0" y2="1"><stop stop-color="#2B80FC" stop-opacity=".28"/><stop offset="1" stop-color="#2B80FC" stop-opacity="0"/></linearGradient></defs><g stroke="#E8EEF7"><path d="M0 65H700M0 130H700M0 195H700"/></g><path d="M0 201C42 198 67 165 103 176s60 43 101-29 86 8 122-26 70 28 114-30 84-2 122-36 80 17 138-35V240H0Z" fill="url(#a)"/><path d="M0 201C42 198 67 165 103 176s60 43 101-29 86 8 122-26 70 28 114-30 84-2 122-36 80 17 138-35" fill="none" stroke="#2B80FC" stroke-width="6" stroke-linecap="round"/></svg>