<svg xmlns="http://www.w3.org/2000/svg" width="520" height="92" viewBox="0 0 520 92"><g><rect x="8" y="8" width="34" height="15" rx="4" fill="#E4EFFF"/><rect x="50" y="8" width="34" height="15" rx="4" fill="#E4EFFF"/><rect x="92" y="8" width="34" height="15" rx="4" fill="#B9D8FF"/><rect x="134" y="8" width="34" height="15" rx="4" fill="#E4EFFF"/><rect x="176" y="8" width="34" height="15" rx="4" fill="#79B6FF"/><rect x="218" y="8" width="34" height="15" rx="4" fill="#B9D8FF"/><rect x="260" y="8" width="34" height="15" rx="4" fill="#E4EFFF"/><rect x="302" y="8" width="34" height="15" rx="4" fill="#E4EFFF"/><rect x="344" y="8" width="34" height="15" rx="4" fill="#B9D8FF"/><rect x="386" y="8" width="34" height="15" rx="4" fill="#79B6FF"/><rect x="428" y="8" width="34" height="15" rx="4" fill="#2B80FC"/><rect x="470" y="8" width="34" height="15" rx="4" fill="#B9D8FF"/><rect x="8" y="29" width="34" height="15" rx="4" fill="#E4EFFF"/><rect x="50" y="29" width="34" height="15" rx="4" fill="#E4EFFF"/><rect x="92" y="29" width="34" height="15" rx="4" fill="#79B6FF"/><rect x="134" y="29" width="34" height="15" rx="4" fill="#E4EFFF"/><rect x="176" y="29" width="34" height="15" rx="4" fill="#E4EFFF"/><rect x="218" y="29" width="34" height="15" rx="4" fill="#B9D8FF"/><rect x="260" y="29" width="34" height="15" rx="4" fill="#E4EFFF"/><rect x="302" y="29" width="34" height="15" rx="4" fill="#79B6FF"/><rect x="344" y="29" width="34" height="15" rx="4" fill="#B9D8FF"/><rect x="386" y="29" width="34" height="15" rx="4" fill="#2B80FC"/><rect x="428" y="29" width="34" height="15" rx="4" fill="#E4EFFF"/><rect x="470" y="29" width="34" height="15" rx="4" fill="#B9D8FF"/><rect x="8" y="50" width="34" height="15" rx="4" fill="#79B6FF"/><rect x="50" y="50" width="34" height="15" rx="4" fill="#E4EFFF"/><rect x="92" y="50" width="34" height="15" rx="4" fill="#B9D8FF"/><rect x="134" y="50" width="34" height="15" rx="4" fill="#E4EFFF"/><rect x="176" y="50" width="34" height="15" rx="4" fill="#E4EFFF"/><rect x="218" y="50" width="34" height="15" rx="4" fill="#79B6FF"/><rect x="260" y="50" width="34" height="15" rx="4" fill="#E4EFFF"/><rect x="302" y="50" width="34" height="15" rx="4" fill="#E4EFFF"/><rect x="344" y="50" width="34" height="15" rx="4" fill="#2B80FC"/><rect x="386" y="50" width="34" height="15" rx="4" fill="#E4EFFF"/><rect x="428" y="50" width="34" height="15" rx="4" fill="#79B6FF"/><rect x="470" y="50" width="34" height="15" rx="4" fill="#B9D8FF"/><rect x="8" y="71" width="34" height="15" rx="4" fill="#E4EFFF"/><rect x="50" y="71" width="34" height="15" rx="4" fill="#E4EFFF"/><rect x="92" y="71" width="34" height="15" rx="4" fill="#B9D8FF"/><rect x="134" y="71" width="34" height="15" rx="4" fill="#79B6FF"/><rect x="176" y="71" width="34" height="15" rx="4" fill="#E4EFFF"/><rect x="218" y="71" width="34" height="15" rx="4" fill="#B9D8FF"/><rect x="260" y="71" width="34" height="15" rx="4" fill="#E4EFFF"/><rect x="302" y="71" width="34" height="15" rx="4" fill="#2B80FC"/><rect x="344" y="71" width="34" height="15" rx="4" fill="#79B6FF"/><rect x="386" y="71" width="34" height="15" rx="4" fill="#E4EFFF"/><rect x="428" y="71" width="34" height="15" rx="4" fill="#E4EFFF"/><rect x="470" y="71" width="34" height="15" rx="4" fill="#B9D8FF"/></g></svg>